<svg viewBox="0 0 1482.77 642.29" xmlns="http://www.w3.org/2000/svg" xmlns:xlink="http://www.w3.org/1999/xlink" id="Layer_1" overflow="hidden"><defs><clipPath id="clip-path" transform="translate(0.38 0.14)"><path d="M1033.34 522.15 1082.62 401.15 1301.46 401.15C1326.83 401.15 1361.36 401.15 1361.36 361.66 1361.36 322.17 1325.36 322.18 1301.46 322.18L1291.86 322.18C1192.1 322.18 1110.94 250.18 1110.94 161.66 1110.94 73.14 1192.1 1.12 1291.86 1.12L1472.7 1.12 1420 122.12 1290.42 122.12C1267.14 122.12 1231.97 122.12 1231.97 161.6 1231.97 201.08 1269.46 201.09 1291.86 201.09L1301.46 201.09C1401.22 201.09 1482.38 273.09 1482.38 361.6 1482.38 450.11 1401.22 522.12 1301.46 522.12Z" fill="none"/></clipPath><clipPath id="clip-path-2" transform="translate(0.38 0.14)"><path d="M181.49 520.64 168.68 520.64C75.46 520.64-0.38 437.45-0.38 335.21L129.9 335.21C129.9 358.26 147.66 377.74 168.68 377.74L181.49 377.74C202.49 377.74 220.27 358.26 220.27 335.21L220.27-0.14 350.56-0.14 350.56 335.21C350.56 437.45 274.72 520.64 181.49 520.64Z" fill="none"/></clipPath></defs><path d="M1033.34 522.15 1082.62 401.15 1301.46 401.15C1326.83 401.15 1361.36 401.15 1361.36 361.66 1361.36 322.17 1325.36 322.18 1301.46 322.18L1291.86 322.18C1192.1 322.18 1110.94 250.18 1110.94 161.66 1110.94 73.14 1192.1 1.12 1291.86 1.12L1472.7 1.12 1420 122.12 1290.42 122.12C1267.14 122.12 1231.97 122.12 1231.97 161.6 1231.97 201.08 1269.46 201.09 1291.86 201.09L1301.46 201.09C1401.22 201.09 1482.38 273.09 1482.38 361.6 1482.38 450.11 1401.22 522.12 1301.46 522.12Z" fill="#059AD6" transform="translate(0.38 0.14)"/><g clip-path="url(#clip-path)"><path d="M1246.67 0.19 1101.63 0.19 883.86 521.64 1028.9 521.64 1246.67 0.19Z" fill="#104D97"/></g><path d="M181.49 520.64 168.68 520.64C75.46 520.64-0.38 437.45-0.38 335.21L129.9 335.21C129.9 358.26 147.66 377.74 168.68 377.74L181.49 377.74C202.49 377.74 220.27 358.26 220.27 335.21L220.27-0.14 350.56-0.14 350.56 335.21C350.56 437.45 274.72 520.64 181.49 520.64Z" fill="#059AD6" transform="translate(0.38 0.14)"/><g clip-path="url(#clip-path-2)"><path d="M263.29 517.29C263.29 517.29 227.54 534.64 214.6 534.64 201.66 534.64 358.87 181 358.87 181L358.87 431.63" fill="#104D97" transform="translate(0.38 0.14)"/></g><path d="M610.5 0.19 465.46 0.19 247.69 521.64 392.73 521.64 610.5 0.19Z" fill="#059AD6"/><path d="M828.26 521.64 610.5 0.19 465.46 0.19 635.36 407.02 460.88 407.02 519.01 521.77 828.26 521.64Z" fill="#059AD6"/><path d="M782.16 0.19 637.12 0.19 854.89 521.64 999.93 521.64 782.16 0.19Z" fill="#059AD6"/><path d="M465.46 0.19 524.05 207.19 537.98 173.84 465.46 0.19Z" fill="#104D97"/><path d="M936.94 0.19 986.11 114.94 1024.73 114.94 854.89 521.64 999.93 521.64 1217.7 0.19 936.94 0.19Z" fill="#059AD6"/><path d="M854.89 521.64 928.72 345.03 909.71 305.09 854.89 521.64Z" fill="#104D97"/><path d="M633.72 550.97 608.33 550.97 570.2 642.26 595.6 642.26 633.72 550.97Z" fill="#059AD6"/><path d="M655.5 622.2 607.53 622.2 617.7 642.29 655.5 642.29 655.5 622.2Z" fill="#059AD6"/><path d="M633.72 550.97 608.33 550.97 646.45 642.26 671.85 642.26 633.72 550.97Z" fill="#059AD6"/><path d="M669.6 550.97 644.21 550.97 682.34 642.26 707.73 642.26 669.6 550.97Z" fill="#059AD6"/><path d="M608.33 550.97 618.59 587.21 621.02 581.37 608.33 550.97Z" fill="#104D97"/><path d="M691.75 550.97 700.35 571.06 712.07 571.06 682.34 642.26 707.73 642.26 745.85 550.97 691.75 550.97Z" fill="#059AD6"/><path d="M682.34 642.26 695.26 611.34 691.93 604.35 682.34 642.26Z" fill="#104D97"/><path d="M223 564.31 223 608.9C223.035 611.672 222.699 614.437 222 617.12 221.471 619.25 220.415 621.214 218.93 622.83 217.401 624.409 215.494 625.573 213.39 626.21 210.653 627.026 207.805 627.408 204.95 627.34 201.962 627.453 198.991 626.842 196.29 625.56 194.158 624.483 192.339 622.875 191.01 620.89 189.697 618.853 188.812 616.57 188.41 614.18 187.945 611.579 187.714 608.942 187.72 606.3L193.61 606.3C193.61 607.63 193.75 609.22 193.87 611.06 193.975 612.875 194.384 614.66 195.08 616.34 195.801 618.059 196.985 619.544 198.5 620.63 200.08 621.81 202.41 622.4 205.5 622.4 207.443 622.46 209.38 622.154 211.21 621.5 212.66 620.931 213.9 619.929 214.76 618.63 215.713 617.11 216.333 615.406 216.58 613.63 216.952 611.225 217.126 608.794 217.1 606.36L217.1 564.31Z" fill="#4D4D4D" transform="translate(0.38 0.14)"/><path d="M247.06 564.31 247.06 602.58C246.993 605.668 247.405 608.748 248.28 611.71 248.966 614.01 250.182 616.116 251.83 617.86 253.417 619.469 255.379 620.658 257.54 621.32 260.009 622.071 262.579 622.436 265.16 622.4 267.767 622.44 270.365 622.076 272.86 621.32 275.024 620.658 276.989 619.469 278.58 617.86 280.228 616.116 281.444 614.01 282.13 611.71 282.997 608.746 283.405 605.667 283.34 602.58L283.34 564.31 289.23 564.31 289.23 603.87C289.242 606.921 288.787 609.956 287.88 612.87 286.151 618.642 281.833 623.281 276.2 625.42 269.079 627.916 261.321 627.916 254.2 625.42 248.561 623.286 244.239 618.646 242.51 612.87 241.607 609.956 241.155 606.921 241.17 603.87L241.17 564.31Z" fill="#4D4D4D" transform="translate(0.38 0.14)"/><path d="M311.65 613.75C312.615 615.795 314.093 617.555 315.94 618.86 317.886 620.184 320.074 621.108 322.38 621.58 325.009 622.144 327.691 622.419 330.38 622.4 332.161 622.385 333.934 622.153 335.66 621.71 337.545 621.26 339.348 620.514 341 619.5 342.625 618.503 344.025 617.178 345.11 615.61 346.24 613.906 346.813 611.893 346.75 609.85 346.793 608.271 346.391 606.711 345.59 605.35 344.821 604.085 343.8 602.993 342.59 602.14 341.314 601.265 339.933 600.552 338.48 600.02 337.031 599.496 335.556 599.049 334.06 598.68L320.29 595.31C318.511 594.846 316.764 594.269 315.06 593.58 313.419 592.928 311.908 591.986 310.6 590.8 309.3 589.607 308.252 588.165 307.52 586.56 306.69 584.619 306.294 582.52 306.36 580.41 306.402 578.622 306.691 576.848 307.22 575.14 307.856 573.012 308.967 571.056 310.47 569.42 312.297 567.455 314.524 565.903 317 564.87 320.36 563.523 323.962 562.886 327.58 563 330.539 562.99 333.485 563.397 336.33 564.21 338.961 564.954 341.428 566.189 343.6 567.85 345.683 569.463 347.39 571.51 348.6 573.85 349.886 576.442 350.524 579.307 350.46 582.2L344.57 582.2C344.518 580.042 343.981 577.923 343 576 342.083 574.285 340.816 572.783 339.28 571.59 337.697 570.381 335.908 569.47 334 568.9 331.964 568.286 329.847 567.979 327.72 567.99 325.755 567.985 323.796 568.203 321.88 568.64 320.119 569.022 318.444 569.727 316.94 570.72 315.516 571.687 314.344 572.979 313.52 574.49 312.602 576.282 312.154 578.278 312.22 580.29 312.195 581.584 312.444 582.869 312.95 584.06 313.421 585.095 314.102 586.022 314.95 586.78 315.842 587.549 316.856 588.164 317.95 588.6 319.112 589.076 320.313 589.451 321.54 589.72L336.61 593.45C338.722 593.995 340.788 594.704 342.79 595.57 344.64 596.349 346.366 597.397 347.91 598.68 349.376 599.931 350.557 601.483 351.37 603.23 352.254 605.277 352.68 607.492 352.62 609.72 352.603 610.65 352.533 611.578 352.41 612.5 352.244 613.766 351.907 615.004 351.41 616.18 350.794 617.581 350.008 618.901 349.07 620.11 347.921 621.56 346.51 622.781 344.91 623.71 342.87 624.885 340.671 625.758 338.38 626.3 331.953 627.717 325.286 627.628 318.9 626.04 315.996 625.322 313.273 624.011 310.9 622.19 308.681 620.426 306.941 618.132 305.84 615.52 304.589 612.42 304.069 609.073 304.32 605.74L310.21 605.74C310.049 608.486 310.542 611.232 311.65 613.75Z" fill="#4D4D4D" transform="translate(0.38 0.14)"/><path d="M410.6 564.31 410.6 569.31 389 569.31 389 626.11 383.12 626.11 383.12 569.31 361.69 569.31 361.69 564.31Z" fill="#4D4D4D" transform="translate(0.38 0.14)"/><path d="M429 564.31 429 626.13 423.12 626.13 423.12 564.31Z" fill="#4D4D4D" transform="translate(0.38 0.14)"/><path d="M490.91 576.65C489.769 574.824 488.301 573.224 486.58 571.93 484.893 570.654 483.008 569.664 481 569 478.916 568.331 476.739 567.994 474.55 568 470.892 567.905 467.266 568.708 463.99 570.34 461.134 571.818 458.66 573.936 456.76 576.53 454.858 579.154 453.448 582.102 452.6 585.23 450.813 591.733 450.813 598.597 452.6 605.1 453.439 608.244 454.849 611.206 456.76 613.84 458.659 616.437 461.134 618.559 463.99 620.04 467.267 621.669 470.892 622.469 474.55 622.37 477.228 622.412 479.884 621.88 482.34 620.81 484.605 619.815 486.646 618.373 488.34 616.57 490.042 614.728 491.416 612.607 492.4 610.3 493.455 607.833 494.129 605.22 494.4 602.55L500.28 602.55C499.943 606.105 499.038 609.582 497.6 612.85 496.315 615.76 494.493 618.403 492.23 620.64 490.008 622.795 487.372 624.476 484.48 625.58 481.313 626.767 477.952 627.354 474.57 627.31 470.169 627.404 465.803 626.502 461.8 624.67 458.272 623.02 455.154 620.609 452.67 617.61 450.202 614.595 448.347 611.127 447.21 607.4 444.797 599.439 444.797 590.941 447.21 582.98 448.355 579.241 450.209 575.758 452.67 572.72 455.144 569.703 458.264 567.28 461.8 565.63 468.537 562.641 476.121 562.162 483.18 564.28 485.923 565.114 488.501 566.417 490.8 568.13 493.086 569.841 495.024 571.972 496.51 574.41 498.088 577.022 499.077 579.946 499.41 582.98L493.53 582.98C493.032 580.733 492.146 578.591 490.91 576.65Z" fill="#4D4D4D" transform="translate(0.38 0.14)"/><path d="M558.21 564.31 558.21 569.31 521.42 569.31 521.42 591.65 555.88 591.65 555.88 596.65 521.42 596.65 521.42 621.1 558.65 621.1 558.65 626.1 515.53 626.1 515.53 564.31Z" fill="#4D4D4D" transform="translate(0.38 0.14)"/><path d="M759.76 613.75C760.725 615.795 762.203 617.555 764.05 618.86 765.997 620.182 768.185 621.106 770.49 621.58 773.119 622.144 775.801 622.419 778.49 622.4 780.271 622.385 782.044 622.153 783.77 621.71 785.652 621.258 787.451 620.513 789.1 619.5 790.725 618.503 792.125 617.178 793.21 615.61 794.34 613.906 794.913 611.893 794.85 609.85 794.893 608.271 794.491 606.711 793.69 605.35 792.921 604.085 791.9 602.993 790.69 602.14 789.414 601.265 788.033 600.552 786.58 600.02 785.131 599.496 783.656 599.049 782.16 598.68L768.39 595.31C766.611 594.846 764.864 594.269 763.16 593.58 761.519 592.928 760.008 591.986 758.7 590.8 757.4 589.607 756.352 588.165 755.62 586.56 754.79 584.619 754.394 582.52 754.46 580.41 754.502 578.622 754.791 576.848 755.32 575.14 755.956 573.012 757.067 571.056 758.57 569.42 760.397 567.455 762.624 565.903 765.1 564.87 768.463 563.523 772.069 562.886 775.69 563 778.649 562.989 781.595 563.396 784.44 564.21 787.071 564.954 789.538 566.189 791.71 567.85 793.793 569.463 795.5 571.51 796.71 573.85 797.996 576.442 798.634 579.307 798.57 582.2L792.68 582.2C792.617 580.043 792.07 577.927 791.08 576.01 790.163 574.295 788.896 572.793 787.36 571.6 785.777 570.391 783.988 569.48 782.08 568.91 780.044 568.296 777.927 567.989 775.8 568 773.835 567.995 771.876 568.213 769.96 568.65 768.199 569.032 766.524 569.737 765.02 570.73 763.596 571.697 762.424 572.989 761.6 574.5 760.682 576.292 760.234 578.288 760.3 580.3 760.275 581.594 760.524 582.879 761.03 584.07 761.501 585.105 762.182 586.032 763.03 586.79 763.925 587.555 764.938 588.17 766.03 588.61 767.192 589.086 768.393 589.461 769.62 589.73L784.69 593.46C786.805 594.006 788.874 594.715 790.88 595.58 792.726 596.362 794.448 597.409 795.99 598.69 797.459 599.938 798.64 601.49 799.45 603.24 800.334 605.287 800.76 607.502 800.7 609.73 800.683 610.66 800.613 611.588 800.49 612.51 800.324 613.776 799.987 615.014 799.49 616.19 798.874 617.591 798.088 618.911 797.15 620.12 796.004 621.572 794.592 622.794 792.99 623.72 790.95 624.895 788.751 625.768 786.46 626.31 780.033 627.727 773.366 627.638 766.98 626.05 764.076 625.332 761.353 624.021 758.98 622.2 756.761 620.436 755.021 618.142 753.92 615.53 752.669 612.43 752.149 609.083 752.4 605.75L758.29 605.75C758.14 608.495 758.644 611.237 759.76 613.75Z" fill="#4D4D4D" transform="translate(0.38 0.14)"/><path d="M814.91 583C816.056 579.264 817.906 575.781 820.36 572.74 822.84 569.725 825.963 567.303 829.5 565.65 837.633 562.117 846.867 562.117 855 565.65 858.514 567.312 861.616 569.733 864.08 572.74 866.541 575.778 868.395 579.262 869.54 583 871.967 590.959 871.967 599.461 869.54 607.42 868.403 611.147 866.548 614.615 864.08 617.63 861.607 620.623 858.508 623.036 855 624.7 846.864 628.22 837.636 628.22 829.5 624.7 825.971 623.048 822.85 620.637 820.36 617.64 817.898 614.623 816.047 611.155 814.91 607.43 812.483 599.471 812.483 590.969 814.91 583.01ZM820.32 605.12C821.155 608.265 822.566 611.228 824.48 613.86 826.379 616.457 828.854 618.579 831.71 620.06 834.986 621.689 838.612 622.489 842.27 622.39 845.915 622.491 849.529 621.691 852.79 620.06 855.625 618.568 858.081 616.447 859.97 613.86 861.88 611.226 863.291 608.264 864.13 605.12 865.917 598.617 865.917 591.753 864.13 585.25 863.282 582.122 861.872 579.174 859.97 576.55 858.08 573.966 855.624 571.849 852.79 570.36 849.531 568.719 845.917 567.908 842.27 568 838.612 567.904 834.986 568.708 831.71 570.34 828.854 571.817 826.38 573.936 824.48 576.53 822.573 579.152 821.164 582.1 820.32 585.23 818.533 591.733 818.533 598.597 820.32 605.1Z" fill="#4D4D4D" transform="translate(0.38 0.14)"/><path d="M892.74 564.31 892.74 621.1 927.37 621.1 927.37 626.1 886.85 626.1 886.85 564.31Z" fill="#4D4D4D" transform="translate(0.38 0.14)"/><path d="M945 564.31 945 602.58C944.931 605.667 945.339 608.747 946.21 611.71 946.896 614.01 948.112 616.116 949.76 617.86 951.351 619.469 953.316 620.658 955.48 621.32 957.917 622.063 960.453 622.427 963 622.4 965.61 622.44 968.211 622.076 970.71 621.32 972.871 620.658 974.833 619.469 976.42 617.86 978.068 616.116 979.284 614.01 979.97 611.71 980.845 608.748 981.257 605.668 981.19 602.58L981.19 564.31 987.07 564.31 987.07 603.87C987.08 606.92 986.628 609.955 985.73 612.87 983.992 618.641 979.673 623.277 974.04 625.42 966.919 627.916 959.161 627.916 952.04 625.42 949.204 624.322 946.656 622.591 944.59 620.36 942.643 618.205 941.196 615.648 940.35 612.87 939.447 609.956 938.995 606.921 939.01 603.87L939.01 564.31Z" fill="#4D4D4D" transform="translate(0.38 0.14)"/><path d="M1047.63 564.31 1047.63 569.31 1026.07 569.31 1026.07 626.11 1020.18 626.11 1020.18 569.31 998.71 569.31 998.71 564.31Z" fill="#4D4D4D" transform="translate(0.38 0.14)"/><path d="M1066.06 564.31 1066.06 626.13 1060.18 626.13 1060.18 564.31Z" fill="#4D4D4D" transform="translate(0.38 0.14)"/><path d="M1083.81 583C1084.96 579.262 1086.81 575.778 1089.27 572.74 1091.75 569.725 1094.87 567.303 1098.4 565.65 1106.53 562.117 1115.77 562.117 1123.9 565.65 1127.42 567.314 1130.52 569.735 1132.99 572.74 1135.44 575.783 1137.3 579.265 1138.45 583 1140.86 590.961 1140.86 599.459 1138.45 607.42 1137.31 611.143 1135.45 614.61 1132.99 617.63 1130.51 620.617 1127.41 623.027 1123.9 624.69 1115.76 628.21 1106.54 628.21 1098.4 624.69 1094.87 623.038 1091.76 620.627 1089.27 617.63 1086.8 614.615 1084.95 611.147 1083.81 607.42 1081.4 599.459 1081.4 590.961 1083.81 583ZM1089.22 605.12C1090.06 608.264 1091.47 611.226 1093.38 613.86 1095.28 616.455 1097.76 618.576 1100.61 620.06 1103.89 621.689 1107.51 622.489 1111.17 622.39 1114.82 622.491 1118.43 621.691 1121.69 620.06 1124.53 618.567 1126.99 616.447 1128.88 613.86 1130.79 611.226 1132.19 608.263 1133.03 605.12 1134.82 598.617 1134.82 591.753 1133.03 585.25 1132.19 582.122 1130.78 579.174 1128.88 576.55 1126.99 573.965 1124.53 571.848 1121.69 570.36 1118.43 568.726 1114.82 567.922 1111.17 568.02 1107.51 567.924 1103.89 568.728 1100.61 570.36 1097.76 571.84 1095.28 573.958 1093.38 576.55 1091.48 579.174 1090.07 582.122 1089.22 585.25 1087.43 591.753 1087.43 598.617 1089.22 605.12Z" fill="#4D4D4D" transform="translate(0.38 0.14)"/><path d="M1162.25 564.31 1198.25 616.6 1198.43 616.6 1198.43 564.31 1204.31 564.31 1204.31 626.13 1197.73 626.13 1161.73 573.83 1161.55 573.83 1161.55 626.13 1155.67 626.13 1155.67 564.31Z" fill="#4D4D4D" transform="translate(0.38 0.14)"/><path d="M1227.27 613.75C1228.23 615.792 1229.71 617.552 1231.55 618.86 1233.5 620.182 1235.69 621.106 1238 621.58 1240.63 622.144 1243.31 622.419 1246 622.4 1247.78 622.384 1249.55 622.152 1251.28 621.71 1253.16 621.26 1254.96 620.514 1256.6 619.5 1258.23 618.505 1259.63 617.18 1260.72 615.61 1261.85 613.904 1262.42 611.893 1262.36 609.85 1262.4 608.271 1262 606.713 1261.2 605.35 1260.43 604.084 1259.41 602.991 1258.2 602.14 1256.9 601.247 1255.49 600.527 1254 600 1252.55 599.475 1251.08 599.028 1249.58 598.66L1235.82 595.29C1234.04 594.825 1232.29 594.247 1230.58 593.56 1228.94 592.905 1227.44 591.964 1226.13 590.78 1224.83 589.587 1223.78 588.145 1223.05 586.54 1222.22 584.6 1221.82 582.501 1221.88 580.39 1221.93 578.602 1222.22 576.828 1222.75 575.12 1223.39 572.994 1224.49 571.038 1225.99 569.4 1227.82 567.437 1230.05 565.886 1232.53 564.85 1235.92 563.497 1239.55 562.867 1243.2 563 1246.16 562.99 1249.1 563.397 1251.95 564.21 1254.58 564.956 1257.05 566.191 1259.22 567.85 1261.3 569.462 1263.01 571.51 1264.22 573.85 1265.51 576.44 1266.15 579.307 1266.08 582.2L1260.2 582.2C1260.14 580.041 1259.59 577.925 1258.59 576.01 1257.68 574.296 1256.41 572.793 1254.88 571.6 1253.29 570.391 1251.5 569.48 1249.59 568.91 1247.55 568.295 1245.44 567.988 1243.31 568 1241.34 567.996 1239.39 568.214 1237.47 568.65 1235.71 569.036 1234.04 569.741 1232.53 570.73 1231.11 571.697 1229.94 572.99 1229.12 574.5 1228.2 576.29 1227.75 578.287 1227.82 580.3 1227.8 581.594 1228.04 582.879 1228.55 584.07 1229.02 585.109 1229.7 586.036 1230.55 586.79 1231.44 587.558 1232.46 588.173 1233.55 588.61 1234.72 589.085 1235.92 589.459 1237.15 589.73L1252.22 593.46C1254.33 594.005 1256.4 594.714 1258.4 595.58 1260.25 596.357 1261.97 597.405 1263.51 598.69 1264.98 599.938 1266.17 601.49 1266.98 603.24 1267.86 605.287 1268.29 607.502 1268.23 609.73 1268.21 610.66 1268.14 611.589 1268.01 612.51 1267.84 613.776 1267.51 615.014 1267.01 616.19 1266.39 617.589 1265.6 618.909 1264.66 620.12 1263.52 621.572 1262.11 622.794 1260.51 623.72 1258.47 624.897 1256.26 625.769 1253.97 626.31 1250.91 627.026 1247.77 627.361 1244.63 627.31 1241.21 627.338 1237.8 626.914 1234.49 626.05 1231.59 625.331 1228.86 624.02 1226.49 622.2 1224.27 620.434 1222.53 618.141 1221.42 615.53 1220.18 612.428 1219.66 609.083 1219.91 605.75L1225.8 605.75C1225.65 608.495 1226.15 611.237 1227.27 613.75Z" fill="#4D4D4D" transform="translate(0.38 0.14)"/></svg>
